<?xml version="1.0" encoding="UTF-8" standalone="no"?>
<!-- Created with Inkscape (http://www.inkscape.org/) -->

<svg
   width="64pt"
   height="64pt"
   viewBox="0 0 22.577778 22.577778"
   version="1.1"
   id="svg831"
   inkscape:version="1.1.1 (3bf5ae0d25, 2021-09-20)"
   sodipodi:docname="Export - Unblash - 64px.svg"
   inkscape:export-filename="C:\Users\User\Desktop\CARLOS PROJECT\3. MARET 1\EXPORT\SOLID\13 - Picture File.png"
   inkscape:export-xdpi="576"
   inkscape:export-ydpi="576"
   xmlns:inkscape="http://www.inkscape.org/namespaces/inkscape"
   xmlns:sodipodi="http://sodipodi.sourceforge.net/DTD/sodipodi-0.dtd"
   xmlns="http://www.w3.org/2000/svg"
   xmlns:svg="http://www.w3.org/2000/svg"
   xmlns:rdf="http://www.w3.org/1999/02/22-rdf-syntax-ns#"
   xmlns:cc="http://creativecommons.org/ns#"
   xmlns:dc="http://purl.org/dc/elements/1.1/">
  <defs
     id="defs825">
    <pattern
       id="EMFhbasepattern"
       patternUnits="userSpaceOnUse"
       width="6"
       height="6"
       x="0"
       y="0" />
    <pattern
       id="EMFhbasepattern-9"
       patternUnits="userSpaceOnUse"
       width="6"
       height="6"
       x="0"
       y="0" />
    <pattern
       id="EMFhbasepattern-0"
       patternUnits="userSpaceOnUse"
       width="6"
       height="6"
       x="0"
       y="0" />
    <pattern
       id="EMFhbasepattern-7"
       patternUnits="userSpaceOnUse"
       width="6"
       height="6"
       x="0"
       y="0" />
    <pattern
       id="EMFhbasepattern-2"
       patternUnits="userSpaceOnUse"
       width="6"
       height="6"
       x="0"
       y="0" />
    <pattern
       id="EMFhbasepattern-98"
       patternUnits="userSpaceOnUse"
       width="6"
       height="6"
       x="0"
       y="0" />
    <pattern
       id="EMFhbasepattern-6"
       patternUnits="userSpaceOnUse"
       width="6"
       height="6"
       x="0"
       y="0" />
    <pattern
       id="EMFhbasepattern-01"
       patternUnits="userSpaceOnUse"
       width="6"
       height="6"
       x="0"
       y="0" />
    <pattern
       id="EMFhbasepattern-07"
       patternUnits="userSpaceOnUse"
       width="6"
       height="6"
       x="0"
       y="0" />
    <pattern
       id="EMFhbasepattern-8"
       patternUnits="userSpaceOnUse"
       width="6"
       height="6"
       x="0"
       y="0" />
    <pattern
       id="EMFhbasepattern-4"
       patternUnits="userSpaceOnUse"
       width="6"
       height="6"
       x="0"
       y="0" />
    <pattern
       id="EMFhbasepattern-40"
       patternUnits="userSpaceOnUse"
       width="6"
       height="6"
       x="0"
       y="0" />
    <pattern
       id="EMFhbasepattern-08"
       patternUnits="userSpaceOnUse"
       width="6"
       height="6"
       x="0"
       y="0" />
    <pattern
       id="EMFhbasepattern-04"
       patternUnits="userSpaceOnUse"
       width="6"
       height="6"
       x="0"
       y="0" />
    <pattern
       id="EMFhbasepattern-014"
       patternUnits="userSpaceOnUse"
       width="6"
       height="6"
       x="0"
       y="0" />
    <pattern
       id="EMFhbasepattern-27"
       patternUnits="userSpaceOnUse"
       width="6"
       height="6"
       x="0"
       y="0" />
    <pattern
       id="EMFhbasepattern-09"
       patternUnits="userSpaceOnUse"
       width="6"
       height="6"
       x="0"
       y="0" />
    <pattern
       id="EMFhbasepattern-5"
       patternUnits="userSpaceOnUse"
       width="6"
       height="6"
       x="0"
       y="0" />
    <pattern
       id="EMFhbasepattern-018"
       patternUnits="userSpaceOnUse"
       width="6"
       height="6"
       x="0"
       y="0" />
  </defs>
  <sodipodi:namedview
     id="base"
     pagecolor="#ffffff"
     bordercolor="#666666"
     borderopacity="1.0"
     inkscape:pageopacity="0.0"
     inkscape:pageshadow="2"
     inkscape:zoom="3.2441286"
     inkscape:cx="5.8567346"
     inkscape:cy="38.068775"
     inkscape:document-units="pt"
     inkscape:current-layer="layer1"
     showgrid="false"
     units="pt"
     inkscape:window-width="1920"
     inkscape:window-height="1001"
     inkscape:window-x="-9"
     inkscape:window-y="41"
     inkscape:window-maximized="1"
     inkscape:pagecheckerboard="true"
     inkscape:showpageshadow="false"
     inkscape:object-paths="true"
     inkscape:snap-intersection-paths="true"
     inkscape:snap-smooth-nodes="true"
     inkscape:snap-midpoints="true"
     showguides="true"
     inkscape:snap-bbox="true"
     inkscape:bbox-nodes="true"
     inkscape:snap-nodes="false"
     inkscape:snap-global="true">
    <inkscape:grid
       type="xygrid"
       id="grid1378" />
    <sodipodi:guide
       position="0.97013831,21.607643"
       orientation="78.000048,0"
       id="guide1380"
       inkscape:locked="false" />
    <sodipodi:guide
       position="0.97013831,0.97013129"
       orientation="0,78.000005"
       id="guide1382"
       inkscape:locked="false" />
    <sodipodi:guide
       position="21.607639,0.97013129"
       orientation="-78.000048,0"
       id="guide1384"
       inkscape:locked="false" />
    <sodipodi:guide
       position="21.607639,21.607643"
       orientation="0,-78.000005"
       id="guide1386"
       inkscape:locked="false" />
  </sodipodi:namedview>
  <metadata
     id="metadata828">
    <rdf:RDF>
      <cc:Work
         rdf:about="">
        <dc:format>image/svg+xml</dc:format>
        <dc:type
           rdf:resource="http://purl.org/dc/dcmitype/StillImage" />
      </cc:Work>
    </rdf:RDF>
  </metadata>
  <g
     inkscape:label="Icon"
     inkscape:groupmode="layer"
     id="layer1"
     transform="translate(0,-274.42223)">
    <path
       id="path26417"
       style="color:#000000;display:inline;fill:#000000;stroke-width:1;stroke-linecap:round;stroke-linejoin:round;-inkscape-stroke:none"
       d="m 1.375588,277.44608 c -0.2135215,0 -0.40544759,0.18876 -0.40544921,0.46327 v 10.67683 c 1.62e-6,0.27451 0.19192771,0.46327 0.40544921,0.46327 h 1.1689752 v -8.67535 c -5e-7,-0.63251 0.4908026,-1.17735 1.1195135,-1.17735 H 17.031358 v -1.2874 c -1e-6,-0.27451 -0.191927,-0.46327 -0.405449,-0.46327 z m 2.2884887,2.46196 c -0.2135228,0 -0.4054495,0.19153 -0.4054492,0.46606 v 10.67404 c -3e-7,0.27451 0.1919264,0.46605 0.4054492,0.46605 H 18.914398 c 0.213522,0 0.405449,-0.19154 0.405449,-0.46605 V 280.3741 c 0,-0.27453 -0.191927,-0.46606 -0.405449,-0.46606 z m 1.3166645,0.92933 H 17.597734 c 0.532409,0 0.987165,0.42406 0.98715,0.95858 v 7.83032 c 3e-6,0.53451 -0.45475,0.95859 -0.98715,0.95859 H 4.9807412 c -0.5324007,0 -0.9878488,-0.42408 -0.9878468,-0.95859 v -7.83032 c -1.45e-5,-0.53452 0.4554378,-0.95858 0.9878468,-0.95858 z m 7.0849108,7.08631 2.140799,-3.24917 c 0.304473,-0.40101 0.929579,-0.38573 1.240033,-0.0108 l 2.425032,2.93149 v -5.79959 c 4e-6,-0.13063 -0.109425,-0.24522 -0.273782,-0.24522 H 4.9807412 c -0.1643598,0 -0.2744827,0.11459 -0.2744792,0.24522 v 4.89047 l 2.7280748,-3.68105 c 0.3411801,-0.36731 0.9488573,-0.35512 1.276956,0.0237 1.0706923,1.63317 2.1385552,3.26816 3.2066712,4.90301 0.04092,0.0653 0.100228,0.0662 0.147688,-0.008 z m 7.967562,-5.55159 v 8.67605 c 0,0.6325 -0.490106,1.17942 -1.118816,1.17942 H 5.5464196 v 1.28461 c 1.8e-6,0.27454 0.1919272,0.46398 0.4054488,0.46398 H 21.20219 c 0.213523,0 0.405448,-0.18944 0.405449,-0.46398 v -10.67403 c -10e-7,-0.27452 -0.191926,-0.46605 -0.405449,-0.46605 z m -8.333302,0.10798 c 0.646275,0 1.176635,0.53106 1.176638,1.17733 7e-6,0.64628 -0.530356,1.17942 -1.176638,1.17942 -0.646284,0 -1.177343,-0.53314 -1.177336,-1.17942 4e-6,-0.64627 0.53106,-1.17733 1.177336,-1.17733 z m -0.466058,1.17733 c -3e-6,0.26074 0.20531,0.46605 0.466058,0.46605 0.260747,0 0.463273,-0.20531 0.463271,-0.46605 -2e-6,-0.26075 -0.202527,-0.46327 -0.469639,-0.4572 -0.267113,0.005 -0.459689,0.2046 -0.45969,0.4572 z m -6.527592,4.22448 v 1.74439 c -7e-7,0.13063 0.1101219,0.24453 0.2744792,0.24453 H 17.597734 c 0.164353,0 0.273784,-0.11391 0.273782,-0.24453 v -0.9112 l -2.975384,-3.5961 c -0.05744,-0.0697 -0.07444,-0.0748 -0.121221,-0.0135 l -2.127562,3.22757 c -0.34584,0.43655 -0.926273,0.54507 -1.300643,0.0237 l -3.1801977,-4.86333 c -0.057337,-0.0808 -0.1425993,-0.0825 -0.2055112,-0.003 z"
       sodipodi:nodetypes="sccscsscssssssssssssssccssccssccccssccccccsccsssccscscssscscscscssscccccccccs" />
  </g>
</svg>
